<svg xmlns="http://www.w3.org/2000/svg" width="1472" height="388" viewBox="0 0 1472 388" version="1.1"><path d="M 364.500 2.613 C 325.361 4.761, 279.006 11.424, 236.500 21.012 C 231.173 22.214, 203.054 29.419, 195.500 31.518 C 186.951 33.893, 152.168 45.472, 148 47.330 C 146.075 48.189, 141.371 50.091, 137.547 51.558 C 127.306 55.487, 125.118 56.486, 106.500 65.727 C 80.905 78.432, 71.891 83.755, 58.652 93.982 C 55.436 96.467, 51.836 99.165, 50.652 99.977 C 47.849 101.900, 26.287 123.755, 22.831 128.175 C 20.100 131.669, 11.490 145.511, 9.256 150 C 8.572 151.375, 6.362 156.775, 4.346 162 C 0.774 171.255, 0.668 171.918, 0.255 187.662 C -0.145 202.890, -0.012 204.392, 2.558 213.662 C 6.899 229.324, 13.548 242.671, 23.897 256.500 C 29.038 263.370, 47.753 282.744, 50 283.522 C 50.825 283.808, 53.443 285.825, 55.817 288.004 C 58.191 290.183, 61.453 292.746, 63.067 293.699 C 64.680 294.651, 66 295.784, 66 296.216 C 66 296.647, 66.493 297, 67.095 297 C 67.698 297, 71.860 299.410, 76.345 302.357 C 80.830 305.303, 87.875 309.465, 92 311.607 C 96.125 313.748, 99.650 315.837, 99.833 316.250 C 100.017 316.662, 101.029 317, 102.083 317 C 103.138 317, 104 317.450, 104 318 C 104 318.550, 104.490 319, 105.088 319 C 105.687 319, 109.174 320.409, 112.838 322.132 C 116.502 323.855, 121.637 326.105, 124.250 327.132 C 126.862 328.159, 131.250 329.900, 134 331 C 154.557 339.223, 159.394 340.910, 179 346.701 C 183.675 348.082, 188.400 349.587, 189.500 350.046 C 190.600 350.505, 196.450 352.045, 202.500 353.469 C 208.550 354.893, 215.300 356.520, 217.500 357.085 C 245.988 364.402, 290.104 372.187, 327.500 376.497 C 350.893 379.193, 400.835 382.989, 412.500 382.958 C 422.435 382.931, 418.691 381.129, 406.218 379.934 C 400.873 379.422, 393.800 378.564, 390.500 378.027 C 387.200 377.491, 382.250 376.796, 379.500 376.484 C 372.620 375.703, 356.620 373.189, 338.250 370.003 C 310.817 365.243, 276.297 357.540, 251 350.533 C 250.175 350.304, 246.800 349.410, 243.500 348.544 C 225.798 343.904, 184.994 329.943, 174.951 325.091 C 172.572 323.941, 170.279 323, 169.857 323 C 168.443 323, 150.989 314.792, 143.181 310.455 C 141.157 309.331, 136.350 306.740, 132.500 304.699 C 128.650 302.657, 124.610 300.427, 123.523 299.743 C 111.856 292.409, 107.397 289.381, 100.837 284.337 C 66.224 257.726, 48.778 227.116, 48.782 193 C 48.785 168.507, 58.546 146.739, 77.254 129.500 C 84.223 123.079, 84.665 122.712, 89.962 118.955 C 91.867 117.605, 94.314 115.713, 95.401 114.750 C 96.488 113.787, 97.967 113, 98.689 113 C 99.410 113, 100 112.626, 100 112.169 C 100 111.712, 101.237 110.719, 102.750 109.962 C 104.263 109.205, 106.183 108.029, 107.019 107.347 C 108.731 105.951, 136.449 92, 137.512 92 C 137.889 92, 139.616 91.351, 141.349 90.557 C 147.198 87.878, 163.419 81.815, 170.985 79.480 C 188.919 73.944, 199.080 71.067, 207.500 69.143 C 212.450 68.012, 220.325 66.208, 225 65.136 C 229.675 64.063, 238.900 62.206, 245.500 61.008 C 252.100 59.811, 260.875 58.205, 265 57.440 C 271.967 56.147, 277.615 55.366, 297 53.014 C 301.125 52.514, 307.650 51.649, 311.500 51.093 C 319.986 49.868, 361.829 46.121, 375 45.406 C 380.225 45.123, 391.173 44.466, 399.330 43.946 C 407.486 43.426, 422.898 43, 433.580 43 C 445.650 43, 453 42.628, 453 42.016 C 453 40.983, 444.061 29.091, 432.987 15.393 C 429.383 10.934, 425.719 6.209, 424.845 4.893 L 423.257 2.500 396.879 2.392 C 382.370 2.333, 367.800 2.432, 364.500 2.613 M 469.675 3.658 C 468.074 5.259, 469.423 5.836, 476.250 6.471 C 505.645 9.205, 557.026 17.844, 590.500 25.680 C 596.550 27.096, 603.075 28.603, 605 29.029 C 622.676 32.934, 673.026 47.909, 685 52.821 C 686.375 53.385, 691.775 55.520, 697 57.565 C 702.225 59.611, 706.927 61.670, 707.450 62.142 C 707.972 62.614, 709.013 63, 709.763 63 C 711.817 63, 744.580 78.495, 750.462 82.248 C 751.541 82.937, 754.241 84.616, 756.462 85.980 C 762.841 89.896, 763.372 90.240, 770.628 95.141 C 774.408 97.694, 778.581 100.732, 779.903 101.891 C 781.225 103.051, 782.582 104, 782.919 104 C 784.089 104, 805.765 125.534, 810.293 131.196 C 820.905 144.465, 828.392 161.403, 831.388 178.926 C 835.401 202.395, 831.036 221.514, 817.068 241.646 C 811.408 249.804, 796.324 264.796, 790.116 268.433 C 789.240 268.946, 787.646 270.184, 786.573 271.183 C 785.501 272.182, 784.033 273, 783.311 273 C 782.590 273, 782 273.395, 782 273.879 C 782 274.362, 780.650 275.317, 779 276 C 777.350 276.683, 776 277.638, 776 278.121 C 776 278.605, 775.248 279, 774.329 279 C 773.410 279, 771.941 279.649, 771.065 280.441 C 768.973 282.334, 743.455 295, 741.733 295 C 741 295, 739.972 295.398, 739.450 295.884 C 738.928 296.369, 735.575 297.757, 732 298.966 C 728.425 300.175, 724.150 301.749, 722.500 302.462 C 718.353 304.255, 707.949 307.539, 699 309.879 C 694.875 310.958, 689.250 312.535, 686.500 313.384 C 673.542 317.386, 628.497 326.791, 611.847 328.971 C 607.256 329.572, 601.250 330.500, 598.500 331.032 C 595.750 331.564, 589.225 332.439, 584 332.976 C 578.775 333.513, 568.200 334.638, 560.500 335.477 C 526.560 339.172, 495.837 341.105, 458.582 341.890 C 439.225 342.298, 429.544 342.858, 429.304 343.583 C 429.106 344.178, 430.335 346.203, 432.033 348.083 C 435.103 351.480, 442.137 360.321, 444.996 364.378 C 445.818 365.545, 447.545 367.625, 448.833 369 C 450.120 370.375, 452.201 373.075, 453.457 375 C 458.528 382.773, 457.230 382.464, 486.353 382.814 C 554.219 383.630, 640.099 369.603, 710.500 346.204 C 720.400 342.914, 729.625 339.771, 731 339.220 C 732.375 338.669, 735.525 337.434, 738 336.475 C 740.475 335.516, 744.875 333.667, 747.777 332.366 C 750.680 331.065, 753.292 330, 753.582 330 C 754.838 330, 784.288 315.667, 795 309.841 C 806.569 303.551, 827.530 288.060, 838.761 277.500 C 858.372 259.063, 868.611 243.723, 876.808 220.500 C 884.218 199.505, 881.233 173.560, 868.583 149 C 862.380 136.959, 854.247 126.245, 842.001 113.985 C 829.726 101.696, 827.108 99.395, 819.910 94.579 C 817.935 93.258, 815.673 91.574, 814.883 90.838 C 812.867 88.961, 807.194 85, 806.521 85 C 806.212 85, 804.057 83.762, 801.730 82.250 C 789.421 74.248, 761.421 60.291, 746.250 54.596 C 743.913 53.718, 740.313 52.369, 738.250 51.597 C 736.188 50.825, 732.250 49.302, 729.500 48.212 C 724.487 46.225, 704.610 39.898, 691.500 36.117 C 669.827 29.864, 622.612 19.477, 600.500 16.096 C 561.901 10.194, 527.097 6.392, 494 4.462 C 489.325 4.189, 482.091 3.745, 477.925 3.474 C 473.759 3.204, 470.047 3.286, 469.675 3.658 M 478.764 139.015 C 458.829 142.176, 447.949 157.302, 449.192 180.128 C 450.111 196.991, 458.595 205.258, 477 207.222 C 494.395 209.078, 495.476 209.329, 495.798 211.588 C 496.453 216.169, 494.168 216.523, 476.274 214.610 C 467.164 213.637, 458.655 212.439, 457.364 211.948 C 452.418 210.068, 452 211.129, 452 225.548 C 452 233.105, 452.421 239.142, 452.972 239.483 C 455.576 241.092, 472.112 243.195, 486 243.683 C 498.468 244.121, 502.772 243.904, 508 242.577 C 520.906 239.300, 527.841 234.095, 532.755 224 C 535.975 217.387, 537.032 203.802, 534.923 196.154 C 531.445 183.543, 524.200 179.298, 504.500 178.327 C 497.900 178.002, 491.712 177.329, 490.750 176.832 C 488.418 175.630, 488.523 172.325, 490.934 171.035 C 493.782 169.511, 512.226 169.779, 521.918 171.484 C 528.103 172.573, 530.690 172.672, 531.668 171.860 C 533.491 170.348, 533.562 146.113, 531.750 143.756 C 529.367 140.657, 519.351 138.917, 501.500 138.502 C 492.150 138.284, 481.919 138.515, 478.764 139.015 M 135.458 142.250 C 135.195 142.938, 135.096 165.325, 135.240 192 L 135.500 240.500 153.426 240.774 C 167.099 240.983, 171.544 240.745, 172.161 239.774 C 172.606 239.073, 172.982 231.975, 172.997 224 L 173.024 209.500 175.373 213.607 C 176.665 215.866, 179.527 221.041, 181.734 225.107 C 183.941 229.173, 186.817 234.409, 188.124 236.742 L 190.500 240.984 211.191 240.992 C 222.694 240.996, 232.134 240.592, 232.450 240.081 C 232.982 239.220, 226.254 227.364, 221.249 220.346 C 220.012 218.611, 219 216.923, 219 216.594 C 219 216.266, 216.742 212.523, 213.981 208.276 C 211.221 204.029, 208.045 198.658, 206.923 196.341 C 204.516 191.369, 204.186 192.244, 214.873 175.265 C 218.762 169.086, 222.861 162.336, 223.981 160.265 C 225.102 158.194, 227.995 153.350, 230.411 149.500 C 232.827 145.650, 234.596 142.162, 234.343 141.750 C 234.089 141.338, 224.034 141, 211.998 141 C 190.901 141, 190.060 141.076, 188.643 143.100 C 187.834 144.254, 184.096 152.242, 180.336 160.850 L 173.500 176.500 172.940 159 C 172.632 149.375, 172.294 141.387, 172.190 141.250 C 172.085 141.113, 163.886 141, 153.969 141 C 140.466 141, 135.817 141.314, 135.458 142.250 M 258.794 142.750 C 257.961 143.713, 256.037 149.900, 254.519 156.500 C 251.398 170.069, 243.682 202.196, 241.910 209 C 241.265 211.475, 240.380 215.300, 239.942 217.500 C 239.505 219.700, 238.206 225.468, 237.056 230.317 C 235.906 235.167, 235.224 239.554, 235.541 240.067 C 236.485 241.594, 271.540 241.259, 272.825 239.711 C 273.414 239.001, 274.336 236.461, 274.874 234.065 C 275.412 231.669, 276.448 229.331, 277.176 228.870 C 277.904 228.408, 282.337 228.024, 287.027 228.015 C 297.057 227.997, 299.438 229.186, 300.474 234.726 C 300.862 236.801, 301.644 239.063, 302.212 239.750 C 303.588 241.416, 339.542 241.550, 340.566 239.893 C 340.942 239.285, 340.744 237.147, 340.125 235.143 C 338.358 229.417, 320.658 155.130, 319.362 148 C 318.057 140.821, 318.860 141, 288 141 C 262.873 141, 260.170 141.162, 258.794 142.750 M 343.492 143.250 C 343.191 144.488, 343.070 166.875, 343.223 193 L 343.500 240.500 361.500 240.500 L 379.500 240.500 379.770 219.750 C 379.919 208.338, 380.369 199.007, 380.770 199.016 C 381.172 199.024, 382.625 201.356, 384 204.197 C 385.375 207.038, 388.220 212.047, 390.322 215.327 C 392.425 218.607, 396.358 225.217, 399.062 230.015 C 401.767 234.813, 404.607 239.259, 405.374 239.895 C 406.333 240.691, 411.719 240.966, 422.634 240.776 L 438.500 240.500 438.500 191 L 438.500 141.500 421.632 141.225 C 410.603 141.046, 404.313 141.325, 403.460 142.033 C 402.465 142.859, 402.216 146.958, 402.413 159.308 C 402.812 184.320, 403.171 184.208, 392.448 162.421 C 387.357 152.077, 382.388 143.025, 381.405 142.307 C 380.092 141.347, 374.893 141, 361.828 141 C 344.208 141, 344.033 141.021, 343.492 143.250 M 546.392 142.420 C 546.093 143.201, 546.023 160.414, 546.239 180.670 C 546.573 212.148, 546.881 218.265, 548.358 222.764 C 551.504 232.348, 559.858 239.438, 571.543 242.441 C 580.838 244.830, 595.249 245.543, 604.754 244.085 C 617.276 242.163, 621.938 240.179, 627.662 234.334 C 632.725 229.165, 635.558 222.008, 636.971 210.819 C 638.377 199.681, 638.261 144.020, 636.829 142.293 C 636.024 141.324, 631.299 141, 617.985 141 C 602.703 141, 600.129 141.222, 599.607 142.582 C 599.273 143.452, 598.980 156.614, 598.956 171.832 C 598.906 203.663, 598.014 210.734, 593.792 212.766 C 591.777 213.736, 590.576 213.764, 588.650 212.886 C 584.223 210.869, 583.610 205.132, 584.382 172.951 C 584.759 157.215, 584.779 143.589, 584.427 142.670 C 583.860 141.194, 581.650 141, 565.362 141 C 550.368 141, 546.836 141.264, 546.392 142.420 M 649.113 142.364 C 648.296 143.348, 648.053 157.218, 648.240 192.114 L 648.500 240.500 667 240.500 L 685.500 240.500 685.777 225.750 C 685.929 217.637, 686.434 211, 686.899 211 C 687.365 211, 688.821 213.137, 690.135 215.750 C 691.449 218.363, 695.132 225.113, 698.319 230.750 L 704.113 241 724.997 241 C 736.484 241, 746.113 240.626, 746.395 240.169 C 746.678 239.712, 745.354 237.030, 743.455 234.209 C 741.555 231.387, 740 228.881, 740 228.640 C 740 228.398, 738.227 225.343, 736.060 221.850 C 724.302 202.901, 719.003 193.667, 719.032 192.172 C 719.049 191.252, 721.636 186.345, 724.782 181.267 C 742.874 152.053, 746.477 146.340, 747.769 144.813 C 750.665 141.390, 748.436 141, 725.964 141 C 700.206 141, 704.277 138.478, 694.485 160.500 C 690.816 168.750, 687.406 175.928, 686.907 176.450 C 686.362 177.021, 686.081 170.620, 686.203 160.434 C 686.315 151.102, 686.064 142.912, 685.644 142.234 C 684.492 140.368, 650.669 140.489, 649.113 142.364 M 284.776 180.261 C 283.278 186.443, 281.758 193.412, 281.398 195.750 L 280.744 200 287.872 200 C 296.358 200, 296.056 200.994, 292.430 185 C 290.996 178.675, 289.629 172.488, 289.392 171.250 C 288.572 166.960, 287.487 169.078, 284.776 180.261" stroke="none" fill="#bf2e3f" fill-rule="evenodd"/><path d="M 385.302 1.746 C 390.693 1.926, 399.243 1.925, 404.302 1.744 C 409.361 1.563, 404.950 1.416, 394.500 1.417 C 384.050 1.418, 379.911 1.566, 385.302 1.746 M 878.010 58.488 C 877 59.705, 877.114 60.085, 878.637 60.571 C 885.378 62.722, 903.758 74.063, 914 82.390 C 921.993 88.888, 931.839 99.063, 937.696 106.876 C 940.840 111.069, 944.080 115.063, 944.897 115.750 C 945.714 116.438, 946.065 117, 945.677 117 C 944.913 117, 949.939 125.107, 951.326 126.112 C 951.791 126.448, 952.106 127.024, 952.026 127.391 C 951.807 128.399, 957.133 139.252, 958.826 141.250 C 959.642 142.213, 960.073 143, 959.783 143 C 959.494 143, 961.036 148.063, 963.212 154.250 C 965.387 160.438, 967.135 166.499, 967.097 167.721 C 967.059 168.942, 967.483 171.139, 968.039 172.603 C 968.857 174.753, 970.076 186.526, 970.256 194 C 970.380 199.184, 968.919 213.020, 967.961 215.729 C 967.333 217.505, 967.023 219.530, 967.272 220.229 C 967.522 220.928, 967.095 222.748, 966.325 224.274 C 965.554 225.800, 965.014 227.600, 965.124 228.274 C 965.235 228.948, 964.352 231.675, 963.162 234.333 C 961.973 236.991, 961 239.777, 961 240.524 C 961 241.271, 960.519 242.179, 959.932 242.542 C 959.344 242.905, 959.093 243.799, 959.372 244.528 C 959.652 245.257, 959.238 246.388, 958.452 247.040 C 957.665 247.693, 957.245 248.587, 957.517 249.028 C 957.790 249.469, 957.535 249.988, 956.952 250.183 C 956.368 250.377, 955.783 251.270, 955.652 252.167 C 955.520 253.064, 954.814 254.519, 954.084 255.399 C 953.353 256.280, 953.148 257.007, 953.628 257.015 C 954.107 257.024, 954.026 257.361, 953.447 257.765 C 951.987 258.784, 947.458 266.333, 947.756 267.250 C 947.890 267.663, 947.610 268, 947.133 268 C 946.656 268, 945.094 269.771, 943.662 271.935 C 940.395 276.872, 928.444 290.688, 924.640 293.928 C 923.067 295.267, 921.267 296.846, 920.640 297.436 C 912.003 305.566, 897.650 315.187, 883 322.667 C 879.425 324.493, 876.500 326.552, 876.500 327.243 C 876.500 328.932, 1435.967 329.107, 1443 327.421 C 1449.998 325.743, 1454.733 323.109, 1459.728 318.114 C 1464.691 313.151, 1469.422 303.904, 1468.493 300.979 C 1468.177 299.983, 1468.387 298.879, 1468.959 298.525 C 1470.292 297.701, 1470.426 87.381, 1469.094 86.558 C 1468.596 86.250, 1468.423 85.099, 1468.710 84.001 C 1468.997 82.902, 1468.495 80.878, 1467.593 79.502 C 1466.692 78.126, 1466.259 77, 1466.632 77 C 1467.005 77, 1466.453 76.053, 1465.405 74.895 C 1464.357 73.737, 1463.543 72.500, 1463.595 72.145 C 1463.999 69.406, 1450.197 58.327, 1447.616 59.317 C 1446.956 59.570, 1445.562 59.153, 1444.517 58.389 C 1442.907 57.212, 1399.712 57, 1160.931 57 C 912.759 57, 879.098 57.177, 878.010 58.488 M 492.287 137.740 C 495.469 137.939, 500.419 137.937, 503.287 137.736 C 506.154 137.535, 503.550 137.372, 497.500 137.374 C 491.450 137.376, 489.104 137.541, 492.287 137.740 M 1152.500 140 C 1150.850 140.420, 1147.507 140.817, 1145.071 140.882 C 1136.259 141.117, 1118.434 148.266, 1115.728 152.650 C 1115.303 153.338, 1114.403 154.486, 1113.728 155.201 C 1113.053 155.915, 1112.568 157.625, 1112.651 159 C 1112.735 160.375, 1112.847 162.705, 1112.901 164.179 C 1113.063 168.566, 1115.390 170.001, 1122.321 169.989 C 1129.907 169.975, 1136 169.031, 1136 167.869 C 1136 167.391, 1135.170 167, 1134.155 167 C 1131.702 167, 1129.039 163.941, 1129.393 161.530 C 1129.924 157.913, 1144.437 155, 1161.929 155 C 1176.449 155, 1180.489 155.882, 1183.345 159.677 C 1184.904 161.748, 1185.007 162.569, 1184.011 164.973 C 1182.713 168.107, 1177.530 173.197, 1176.592 172.259 C 1176.266 171.933, 1176 172.123, 1176 172.681 C 1176 173.240, 1174.088 174.493, 1171.750 175.468 C 1158.543 180.973, 1155.170 181.878, 1132.500 186 C 1121.139 188.066, 1116.374 189.253, 1114.784 190.416 C 1112.051 192.415, 1108.373 202.097, 1108.970 205.723 C 1109.392 208.293, 1109.804 208.752, 1111 207.988 C 1113.168 206.604, 1144.039 206.767, 1149.736 208.193 C 1152.356 208.849, 1155.979 210.459, 1157.786 211.771 C 1160.631 213.837, 1161.041 214.677, 1160.843 218.038 C 1160.708 220.321, 1159.637 223.167, 1158.242 224.950 C 1155.774 228.103, 1147.045 233.646, 1141 235.898 C 1139.075 236.615, 1136.600 237.555, 1135.500 237.987 C 1128.781 240.624, 1123.595 241.392, 1112.149 241.443 C 1097.801 241.508, 1093.915 240.304, 1093.418 235.643 C 1093.263 234.190, 1093.556 233, 1094.068 233 C 1094.581 233, 1095 232.550, 1095 232 C 1095 230.088, 1092.049 231.018, 1088.650 234.003 C 1086.769 235.654, 1084.241 239.444, 1083.031 242.424 C 1080.957 247.533, 1080.923 248.033, 1082.427 251.171 C 1084.317 255.116, 1088.963 258.337, 1094.500 259.542 C 1100.327 260.810, 1121.757 260.644, 1127 259.290 C 1129.475 258.651, 1133.075 257.719, 1135 257.218 C 1140.100 255.890, 1149.609 251.362, 1154.900 247.742 C 1160.675 243.790, 1169.086 234.901, 1169.874 231.917 C 1173.507 218.157, 1171.932 210.788, 1164.315 205.907 C 1157.343 201.440, 1151.569 199.491, 1142.344 198.492 C 1137.483 197.966, 1136.084 197.429, 1135.694 195.939 C 1135.294 194.409, 1135.891 193.945, 1138.851 193.482 C 1143.713 192.721, 1146.745 192.103, 1151.250 190.955 C 1161.276 188.401, 1163.713 187.849, 1166.358 187.529 C 1167.930 187.340, 1169.707 186.693, 1170.308 186.092 C 1170.909 185.491, 1172.408 185, 1173.641 185 C 1174.874 185, 1176.179 184.519, 1176.542 183.932 C 1176.905 183.344, 1177.770 183.082, 1178.464 183.348 C 1180.375 184.081, 1189.848 175.290, 1191.611 171.146 C 1193.412 166.914, 1193.749 154.349, 1192.105 152.705 C 1191.497 152.097, 1191 151.055, 1191 150.389 C 1191 148.863, 1185.439 144.133, 1182.056 142.782 C 1174.324 139.694, 1159.272 138.277, 1152.500 140 M 545.445 173.500 C 545.444 190.550, 545.581 197.666, 545.748 189.312 C 545.915 180.959, 545.915 167.009, 545.748 158.312 C 545.582 149.616, 545.445 156.450, 545.445 173.500 M 1424.225 144.595 C 1421.376 145.840, 1406 159.964, 1406 161.336 C 1406 161.613, 1403.525 165.433, 1400.500 169.825 C 1397.475 174.216, 1395 178.087, 1395 178.426 C 1395 179.351, 1389.616 187.449, 1388.744 187.835 C 1388.328 188.020, 1388.219 188.546, 1388.503 189.005 C 1388.786 189.463, 1388.452 190.448, 1387.759 191.193 C 1387.067 191.938, 1386.357 193.212, 1386.182 194.024 C 1386.007 194.836, 1385.219 196.807, 1384.432 198.404 C 1383.644 200.001, 1383 201.858, 1383 202.531 C 1383 203.204, 1382.330 204.311, 1381.511 204.991 C 1380.692 205.671, 1380.261 206.613, 1380.553 207.085 C 1380.844 207.557, 1380.388 209.005, 1379.538 210.302 C 1378.688 211.599, 1378.256 212.923, 1378.578 213.244 C 1378.899 213.566, 1378.581 214.880, 1377.871 216.164 C 1377.161 217.449, 1376.701 219.090, 1376.848 219.810 C 1376.995 220.531, 1376.551 222.781, 1375.860 224.810 C 1375.170 226.840, 1374.582 229.038, 1374.553 229.696 C 1374.476 231.443, 1367.543 237.525, 1362.270 240.473 C 1353.590 245.324, 1346.648 244.759, 1343.092 238.911 C 1339.910 233.679, 1341.705 230.195, 1354.381 217 C 1358.343 212.875, 1361.647 209.275, 1361.722 209 C 1362.389 206.567, 1364.038 203.094, 1364.729 202.667 C 1365.198 202.378, 1365.685 200.615, 1365.810 198.750 C 1365.992 196.045, 1365.541 195.093, 1363.584 194.045 C 1356.771 190.399, 1340.605 203.984, 1333.642 219.208 C 1332.710 221.247, 1331.551 223.160, 1331.067 223.459 C 1330.583 223.757, 1330.421 224.896, 1330.707 225.988 C 1331.255 228.084, 1329.422 230.164, 1318.981 239.290 C 1315.966 241.924, 1308.902 248.651, 1303.282 254.238 C 1297.662 259.826, 1292.712 264.021, 1292.282 263.562 C 1291.852 263.102, 1292.065 262.524, 1292.756 262.278 C 1293.447 262.031, 1293.773 261.442, 1293.481 260.969 C 1292.517 259.410, 1322.120 211.874, 1325.368 209.765 C 1325.991 209.361, 1326.107 209.024, 1325.628 209.015 C 1325.148 209.007, 1325.315 208.325, 1326 207.500 C 1326.685 206.675, 1327.302 203.788, 1327.372 201.083 C 1327.470 197.327, 1327.072 195.900, 1325.687 195.036 C 1323.039 193.383, 1320.956 194.493, 1316.771 199.785 C 1306.488 212.787, 1287.721 229.828, 1275.975 236.828 L 1268.712 241.157 1266.676 239.121 C 1264.848 237.292, 1264.778 236.801, 1265.995 234.292 C 1266.740 232.757, 1267.291 231.225, 1267.221 230.889 C 1267.150 230.553, 1271.009 226.476, 1275.796 221.830 C 1286.945 211.008, 1291.042 206.370, 1293.396 201.901 C 1295.690 197.547, 1295.010 193.708, 1291.544 191.437 C 1289.316 189.977, 1288.814 189.991, 1285.310 191.612 C 1278.182 194.911, 1260.539 215.239, 1256.332 225 C 1253.351 231.918, 1254.336 240.563, 1259.267 250.764 C 1264.346 261.269, 1268.174 259.945, 1291.108 239.753 C 1296.723 234.810, 1299.420 233.752, 1298.764 236.750 C 1298.553 237.713, 1297.733 238.350, 1296.941 238.167 C 1296.148 237.983, 1295.811 238.144, 1296.190 238.524 C 1296.902 239.236, 1286.472 256.925, 1284.568 258.235 C 1283.981 258.639, 1283.868 258.976, 1284.318 258.985 C 1284.768 258.993, 1284.299 260.238, 1283.276 261.750 C 1282.253 263.262, 1280.545 266.188, 1279.481 268.250 C 1278.416 270.313, 1277.123 272, 1276.606 272 C 1276.089 272, 1275.953 272.287, 1276.304 272.637 C 1276.654 272.988, 1276.054 274.520, 1274.970 276.041 C 1273.887 277.563, 1273 279.288, 1273 279.874 C 1273 280.460, 1272.177 282.415, 1271.171 284.220 C 1267.728 290.395, 1267.468 297.185, 1270.516 301.353 C 1272.127 303.555, 1275.611 302.800, 1276.481 300.060 C 1276.802 299.050, 1278.107 297.097, 1279.383 295.721 C 1280.658 294.345, 1282.705 291.595, 1283.932 289.610 C 1285.159 287.624, 1286.576 286, 1287.082 286 C 1287.587 286, 1288 285.515, 1288 284.921 C 1288 281.873, 1328.072 235.739, 1329.489 237.156 C 1329.738 237.404, 1330.144 239.686, 1330.393 242.225 C 1330.642 244.765, 1331.346 247.778, 1331.958 248.921 C 1332.570 250.065, 1332.792 251, 1332.451 251 C 1332.111 251, 1333.238 252.775, 1334.956 254.945 C 1341.617 263.355, 1352.187 260.735, 1365.874 247.283 C 1369.930 243.297, 1373.592 240.248, 1374.011 240.507 C 1374.759 240.969, 1376.362 247.044, 1376.517 250 C 1376.623 252.010, 1379.880 257.089, 1382.436 259.228 C 1385.027 261.396, 1392.705 261.552, 1396.636 259.516 C 1401.199 257.153, 1413.152 246.036, 1417.772 239.860 C 1420.989 235.559, 1421.825 233.702, 1421.248 232.142 C 1420.548 230.250, 1420.055 230.501, 1414.994 235.325 C 1408.459 241.554, 1400.774 247, 1398.520 247 C 1395.799 247, 1391.494 244.301, 1390.281 241.835 C 1389.649 240.551, 1388.573 237.841, 1387.889 235.814 C 1386.234 230.910, 1387.985 224.978, 1392.527 220.105 C 1400.881 211.141, 1411.924 196.564, 1417.985 186.500 C 1419.310 184.300, 1420.643 182.275, 1420.947 182 C 1421.251 181.725, 1421.646 180.825, 1421.825 180 C 1422.004 179.175, 1422.569 178.349, 1423.081 178.165 C 1423.593 177.980, 1423.769 177.436, 1423.472 176.955 C 1423.175 176.475, 1423.345 175.276, 1423.849 174.291 C 1424.354 173.306, 1425.213 171.375, 1425.759 170 C 1426.305 168.625, 1427.315 166.150, 1428.003 164.500 C 1430.319 158.952, 1430.491 142.829, 1428.231 143.082 C 1427.829 143.126, 1426.026 143.807, 1424.225 144.595 M 1074.902 144.772 C 1073.134 145.244, 1068.663 147.334, 1068 147.998 C 1067.725 148.274, 1065.475 149.581, 1063 150.901 C 1051.984 156.780, 1036.005 169.882, 1027.308 180.166 C 1024.827 183.100, 1021.718 186.734, 1020.399 188.241 C 1019.079 189.749, 1018 191.352, 1018 191.803 C 1018 192.254, 1017.187 193.495, 1016.194 194.561 C 1015.201 195.628, 1014.332 196.725, 1014.264 197 C 1013.665 199.423, 1011.920 202.931, 1011.045 203.472 C 1010.452 203.838, 1010.204 204.521, 1010.493 204.988 C 1010.782 205.456, 1010.361 206.496, 1009.557 207.300 C 1008.753 208.104, 1008.335 209.002, 1008.629 209.295 C 1008.922 209.589, 1008.596 210.880, 1007.903 212.164 C 1007.211 213.449, 1006.518 215.400, 1006.363 216.500 C 1004.946 226.575, 1004.969 229.957, 1006.491 235.500 C 1007.397 238.800, 1008.239 242.017, 1008.363 242.649 C 1008.487 243.281, 1009.186 244.519, 1009.916 245.399 C 1010.647 246.280, 1010.965 247, 1010.622 247 C 1010 247, 1010.487 247.574, 1016.965 254.466 C 1021.450 259.238, 1025.831 261, 1033.208 261 C 1041.896 261, 1050.219 256.616, 1060.183 246.793 C 1064.482 242.554, 1068 238.764, 1068 238.372 C 1068 237.979, 1068.612 236.947, 1069.360 236.079 C 1071.345 233.774, 1077 223.086, 1077 221.638 C 1077 220.957, 1077.528 219.872, 1078.172 219.228 C 1078.817 218.583, 1079.468 217.030, 1079.619 215.778 C 1079.770 214.525, 1080.195 211.187, 1080.564 208.359 C 1081.412 201.846, 1079.096 194.425, 1074.987 190.487 C 1065.843 181.727, 1051.477 183.680, 1037.435 195.592 C 1033.929 198.566, 1030.570 201, 1029.971 201 C 1029.372 201, 1029.200 201.563, 1029.588 202.250 C 1030.139 203.226, 1030.009 203.237, 1028.998 202.301 C 1027.168 200.608, 1028.944 198.184, 1040.444 186.684 C 1052.058 175.071, 1071.727 159, 1074.328 159 C 1074.585 159, 1077.758 157.200, 1081.380 155 C 1085.001 152.800, 1088.309 150.998, 1088.732 150.995 C 1089.930 150.987, 1095.561 146.237, 1095 145.707 C 1094.356 145.098, 1076.750 144.280, 1074.902 144.772 M 134.443 184.500 C 134.443 201, 134.580 207.890, 134.748 199.812 C 134.915 191.733, 134.916 178.233, 134.748 169.812 C 134.581 161.390, 134.444 168, 134.443 184.500 M 1416.167 162.733 C 1412.546 165.249, 1399.652 185, 1401.631 185 C 1402.004 185, 1401.495 185.900, 1400.500 187 C 1399.505 188.100, 1398.995 189, 1399.368 189 C 1399.741 189, 1399.300 190.139, 1398.388 191.531 C 1397.475 192.923, 1397.016 194.349, 1397.367 194.700 C 1397.717 195.051, 1397.422 196.049, 1396.709 196.919 C 1395.997 197.788, 1394.824 200.237, 1394.102 202.360 C 1392.987 205.644, 1393.009 206.438, 1394.253 207.682 C 1395.536 208.964, 1396.385 208.245, 1401.180 201.822 C 1410.311 189.589, 1414.535 182.802, 1413.723 181.668 C 1413.600 181.497, 1414.292 180.566, 1415.259 179.598 C 1416.227 178.630, 1416.794 177.476, 1416.520 177.033 C 1416.246 176.589, 1416.692 175.671, 1417.511 174.991 C 1418.330 174.311, 1419 172.937, 1419 171.937 C 1419 170.936, 1419.459 169.834, 1420.021 169.487 C 1421.233 168.738, 1420.695 161.707, 1419.398 161.355 C 1418.904 161.221, 1417.450 161.841, 1416.167 162.733 M 584.420 185.500 C 584.419 196.500, 584.565 201.136, 584.745 195.803 C 584.924 190.470, 584.925 181.470, 584.746 175.803 C 584.568 170.136, 584.421 174.500, 584.420 185.500 M 1051 197.673 C 1039.868 204.239, 1025.323 218.013, 1022.394 224.764 C 1020.884 228.244, 1020.159 238.394, 1021.152 242.149 C 1022.574 247.530, 1027.732 248.396, 1035.640 244.581 C 1043.795 240.647, 1064.120 219.621, 1062.423 216.875 C 1062.125 216.394, 1062.307 216, 1062.826 216 C 1064.003 216, 1067 207.035, 1067 203.512 C 1067 202.076, 1066.313 199.573, 1065.474 197.950 C 1064.149 195.387, 1063.395 195.001, 1059.724 195.009 C 1056.963 195.016, 1053.941 195.938, 1051 197.673 M 380.419 220 C 380.419 230.725, 380.566 235.113, 380.746 229.750 C 380.925 224.387, 380.925 215.613, 380.746 210.250 C 380.566 204.887, 380.419 209.275, 380.419 220 M 686.397 225 C 686.397 232.975, 686.553 236.238, 686.743 232.250 C 686.932 228.262, 686.932 221.738, 686.743 217.750 C 686.553 213.762, 686.397 217.025, 686.397 225 M 451.389 225.500 C 451.390 232.650, 451.550 235.444, 451.742 231.708 C 451.935 227.973, 451.934 222.123, 451.739 218.708 C 451.545 215.294, 451.387 218.350, 451.389 225.500 M 282.250 228.735 C 284.863 228.941, 289.137 228.941, 291.750 228.735 C 294.363 228.529, 292.225 228.360, 287 228.360 C 281.775 228.360, 279.637 228.529, 282.250 228.735 M 1206.699 241.573 C 1202.923 245.350, 1198.673 254.395, 1199.480 256.938 C 1200.989 261.691, 1208.809 258.484, 1212.522 251.589 C 1213.585 249.615, 1214.690 248, 1214.977 247.999 C 1215.265 247.999, 1215.500 246.087, 1215.500 243.749 C 1215.500 239.740, 1215.327 239.483, 1212.436 239.201 C 1210.193 238.981, 1208.655 239.617, 1206.699 241.573 M 483.750 244.737 C 486.637 244.939, 491.363 244.939, 494.250 244.737 C 497.137 244.535, 494.775 244.370, 489 244.370 C 483.225 244.370, 480.863 244.535, 483.750 244.737 M 461.250 341.739 C 464.413 341.937, 469.587 341.937, 472.750 341.739 C 475.913 341.541, 473.325 341.378, 467 341.378 C 460.675 341.378, 458.087 341.541, 461.250 341.739 M 481.750 383.743 C 485.738 383.932, 492.262 383.932, 496.250 383.743 C 500.238 383.553, 496.975 383.397, 489 383.397 C 481.025 383.397, 477.762 383.553, 481.750 383.743" stroke="none" fill="#3e545d" fill-rule="evenodd"/></svg>